<svg width="400" height="57" viewBox="0 0 400 57" fill="none" xmlns="http://www.w3.org/2000/svg">
<path d="M35.0817 8.12109H7.21947C5.12811 8.12109 3.38977 9.73213 3.23101 11.8175L0.842814 43.1873C0.558291 46.9246 5.10885 48.9656 7.7106 46.2676L37.9611 14.8977C40.4105 12.3576 38.6104 8.12109 35.0817 8.12109Z" fill="#FF8A00"/>
<path d="M382.821 10.032H398.903V46.1212H382.821V44.4926C382.821 44.232 382.57 44.232 382.507 44.232C382.444 44.232 382.382 44.232 382.319 44.2971C380.371 46.3166 378.173 47.2937 375.66 47.2937C368.436 47.2937 363.159 39.1509 363.159 28.4023C363.159 17.9794 369.127 9.51086 376.477 9.51086H376.539C378.738 9.51086 380.685 10.2926 382.319 11.856C382.382 11.9211 382.444 11.9212 382.507 11.9212C382.57 11.9212 382.821 11.856 382.821 11.5954V10.032ZM382.821 34.8514V21.888C382.821 21.1714 382.256 20.6503 381.565 20.6503C380.874 20.6503 380.371 21.1714 380.371 21.888V34.8514C380.371 35.568 380.874 36.0891 381.565 36.0891C382.256 36.0891 382.821 35.568 382.821 34.8514Z" fill="#FF8A00"/>
<path d="M352.004 31.7246L343.273 32.9623C342.519 33.0274 342.267 33.744 342.267 34.2C342.267 34.3303 342.33 35.4377 343.398 35.4377C343.461 35.4377 343.524 35.4377 343.587 35.4377L361.05 32.8971V46.1211H336.928C331.149 46.1211 326.5 41.3006 326.5 35.3074C326.5 29.9006 330.395 25.1451 335.546 24.4286L344.466 23.1257C345.283 23.0606 345.471 22.4091 345.471 21.9531C345.471 21.8228 345.345 20.6503 344.466 20.6503C344.34 20.6503 344.278 20.7154 344.152 20.7154L326.5 23.256V10.032H350.622C356.402 10.032 361.05 14.9177 361.05 20.9108C361.05 26.3177 357.155 30.8777 352.004 31.7246Z" fill="#FF8A00"/>
<path d="M314.276 31.7246L305.544 32.9623C304.79 33.0274 304.539 33.744 304.539 34.2C304.539 34.3303 304.602 35.4377 305.67 35.4377C305.732 35.4377 305.795 35.4377 305.858 35.4377L323.322 32.8971V46.1211H299.199C293.42 46.1211 288.771 41.3006 288.771 35.3074C288.771 29.9006 292.666 25.1451 297.817 24.4286L306.738 23.1257C307.554 23.0606 307.743 22.4091 307.743 21.9531C307.743 21.8228 307.617 20.6503 306.738 20.6503C306.612 20.6503 306.549 20.7154 306.423 20.7154L288.771 23.256V10.032H312.894C318.673 10.032 323.322 14.9177 323.322 20.9108C323.322 26.3177 319.427 30.8777 314.276 31.7246Z" fill="#FF8A00"/>
<path d="M285.465 9.70628C285.151 11.9863 283.957 13.8754 282.261 15.1131C280.565 16.3509 278.869 16.7417 277.55 16.7417C277.11 16.7417 276.733 16.6766 276.293 16.6114C274.095 16.1554 272.273 14.9829 271.079 13.224C269.823 11.4651 269.509 9.70628 269.509 8.40342C269.509 7.94742 269.572 7.49142 269.634 7.03543C269.949 4.75542 271.142 2.86628 272.838 1.56343C274.534 0.325714 276.23 0 277.487 0C277.926 0 278.366 0.065142 278.869 0.130284C281.067 0.455998 282.889 1.69371 284.083 3.45257C285.276 5.21143 285.59 6.97029 285.59 8.27314C285.59 8.72914 285.527 9.18514 285.465 9.70628ZM285.59 46.1211H269.509V19.2171H285.59V46.1211Z" fill="#FF8A00"/>
<path d="M255.147 9.51086C262.371 9.51086 267.648 17.6537 267.648 28.4023C267.648 38.76 261.68 47.2937 254.268 47.2937C252.069 47.2937 250.184 46.512 248.488 44.8834C248.426 44.8183 248.363 44.8183 248.3 44.8183C248.237 44.8183 247.986 44.8834 247.986 45.144V56.9349H231.904V10.032H247.986V12.2469C247.986 12.5074 248.237 12.5074 248.3 12.5074C248.363 12.5074 248.426 12.5074 248.488 12.4423C250.373 10.488 252.572 9.51086 255.147 9.51086ZM250.436 34.8514V21.888C250.436 21.1714 249.87 20.6503 249.179 20.6503C248.488 20.6503 247.986 21.1714 247.986 21.888V34.8514C247.986 35.568 248.488 36.0892 249.179 36.0892C249.87 36.0892 250.436 35.568 250.436 34.8514Z" fill="#FF8A00"/>
<path d="M196.353 9.51086H196.416C206.467 9.51086 214.633 17.9794 214.633 28.4023C214.633 38.76 206.341 47.2937 196.353 47.2937C186.302 47.2937 178.136 38.76 178.136 28.4023C178.136 17.9794 186.302 9.51086 196.353 9.51086ZM197.609 34.8514V21.888C197.609 21.1714 197.107 20.6503 196.416 20.6503C195.725 20.6503 195.222 21.1714 195.222 21.888V34.8514C195.222 35.568 195.725 36.0891 196.416 36.0891C197.107 36.0891 197.609 35.568 197.609 34.8514Z" fill="#FF8A00"/>
<path d="M160.197 10.032H176.279V39.9977C176.279 52.6354 169.997 56.9349 159.883 56.9349H155.863V48.4663H159.883C160.072 48.4663 160.197 48.4012 160.197 48.2057V44.4926C160.197 44.232 159.946 44.232 159.883 44.232C159.82 44.232 159.758 44.232 159.695 44.2972C157.747 46.3166 155.549 47.2937 153.036 47.2937C145.812 47.2937 140.535 39.1509 140.535 28.4023C140.535 17.9794 146.503 9.51086 153.853 9.51086H153.915C156.114 9.51086 158.061 10.2926 159.695 11.856C159.758 11.9212 159.82 11.9212 159.883 11.9212C159.946 11.9212 160.197 11.856 160.197 11.5954V10.032ZM160.197 34.8514V21.888C160.197 21.1714 159.632 20.6503 158.941 20.6503C158.25 20.6503 157.747 21.1714 157.747 21.888V34.8514C157.747 35.568 158.25 36.0892 158.941 36.0892C159.632 36.0892 160.197 35.568 160.197 34.8514Z" fill="#FF8A00"/>
<path d="M106.051 9.51086H106.114C116.165 9.51086 124.331 17.9794 124.331 28.4023C124.331 38.76 116.039 47.2937 106.051 47.2937C96.0004 47.2937 87.834 38.76 87.834 28.4023C87.834 17.9794 96.0004 9.51086 106.051 9.51086ZM107.308 34.8514V21.888C107.308 21.1714 106.805 20.6503 106.114 20.6503C105.423 20.6503 104.921 21.1714 104.921 21.888V34.8514C104.921 35.568 105.423 36.0891 106.114 36.0891C106.805 36.0891 107.308 35.568 107.308 34.8514Z" fill="#FF8A00"/>
<path d="M69.8955 10.032H85.977V39.9977C85.977 52.6354 79.6952 56.9349 69.5814 56.9349H65.5611V48.4663H69.5814C69.7699 48.4663 69.8955 48.4012 69.8955 48.2057V44.4926C69.8955 44.232 69.6443 44.232 69.5814 44.232C69.5186 44.232 69.4558 44.232 69.393 44.2972C67.4456 46.3166 65.247 47.2937 62.7342 47.2937C55.5101 47.2937 50.2334 39.1509 50.2334 28.4023C50.2334 17.9794 56.2011 9.51086 63.5509 9.51086H63.6137C65.8123 9.51086 67.7597 10.2926 69.393 11.856C69.4558 11.9212 69.5186 11.9212 69.5814 11.9212C69.6443 11.9212 69.8955 11.856 69.8955 11.5954V10.032ZM69.8955 34.8514V21.888C69.8955 21.1714 69.3302 20.6503 68.6392 20.6503C67.9482 20.6503 67.4456 21.1714 67.4456 21.888V34.8514C67.4456 35.568 67.9482 36.0892 68.6392 36.0892C69.3302 36.0892 69.8955 35.568 69.8955 34.8514Z" fill="#FF8A00"/>
</svg>
